<?xml version="1.0" encoding="utf-8"?>
<!-- Generator: Adobe Illustrator 19.2.0, SVG Export Plug-In . SVG Version: 6.00 Build 0)  -->
<svg version="1.1" id="Layer_1" xmlns="http://www.w3.org/2000/svg" xmlns:xlink="http://www.w3.org/1999/xlink" x="0px" y="0px"
	 viewBox="0 0 18 14.9" style="enable-background:new 0 0 18 14.9;" xml:space="preserve">
<style type="text/css">
	.st0{fill:#FFFFFF;}
</style>
<g>
	<g transform="matrix(1 0 0 -1 0 1952)">
		<path class="st0" d="M1.9,1937.7c0,0,0.1-0.6,0.6-0.6l13,0c0,0,0.5,0,0.7,0.7l0.6,7.4l-15.6,0L1.9,1937.7z M17.4,1948.2h-3.7v-0.6
			c0-1.3-1.2-1.2-1.2-1.2h-0.6c-1.4,0-1.7,1.9-1.7,1.9H7.9c0,0-0.4-1.8-1.7-1.9H5.5c-1.2,0-1.2,1.2-1.2,1.2v0.6H0.6
			c0,0-0.6,0-0.6-0.6v-1.2c0,0-0.1-0.6,0.6-0.6h16.7c0,0,0.6,0,0.6,0.6v0.6C18,1947,18.1,1948.2,17.4,1948.2L17.4,1948.2z
			 M11.8,1947h0.6c0.6,0,0.6,0.3,0.6,0.6l-1.9,3.7c0,0.3-0.6,0.6-0.6,0.6H10c-0.6,0-0.6-0.3-0.6-0.6l1.9-3.7
			C11.3,1947.2,11.7,1947,11.8,1947L11.8,1947z M5.6,1947h0.6c0.1,0,0.5,0.2,0.6,0.6l1.9,3.7c0,0.3,0,0.6-0.6,0.6H7.5
			c0,0-0.6-0.3-0.6-0.6l-1.9-3.7C5,1947.3,5,1947,5.6,1947L5.6,1947z"/>
	</g>
</g>
</svg>
