<?xml version="1.0" encoding="utf-8"?>
<!-- Generator: Adobe Illustrator 19.2.0, SVG Export Plug-In . SVG Version: 6.00 Build 0)  -->
<svg version="1.1" id="Layer_1" xmlns="http://www.w3.org/2000/svg" xmlns:xlink="http://www.w3.org/1999/xlink" x="0px" y="0px"
	 viewBox="0 0 16 16" style="enable-background:new 0 0 16 16;" xml:space="preserve">
<style type="text/css">
	.st0{fill:#E83426;}
</style>
<g>
	<path class="st0" d="M10.2,8l5.4,5.4c0.6,0.6,0.6,1.6,0,2.2c-0.3,0.3-0.7,0.5-1.1,0.5s-0.8-0.2-1.1-0.5L8,10.2l-5.4,5.4
		C2.3,15.8,1.9,16,1.5,16s-0.8-0.2-1.1-0.5c-0.6-0.6-0.6-1.6,0-2.2L5.8,8L0.5,2.6c-0.6-0.6-0.6-1.6,0-2.2s1.6-0.6,2.2,0L8,5.8
		l5.4-5.4c0.6-0.6,1.6-0.6,2.2,0c0.6,0.6,0.6,1.6,0,2.2L10.2,8L10.2,8z"/>
</g>
</svg>
